<svg xmlns="http://www.w3.org/2000/svg" viewBox="0 0 8192 8192">
  <circle cx="4096" cy="4096" r="4096" fill="#7B6FD4" />
  <g transform="translate(532 286) scale(0.87)">
    <g fill="#ffffff">
            <!-- Generator: Adobe Illustrator 30.3.0, SVG Export Plug-In . SVG Version: 2.1.3 Build 182)  -->
              <g>
                <path d="M4083.02,8378.5c4.57-1.57-4.84.02,0,0h0Z"/>
                <path d="M3339.92,7904.9"/>
                <path d="M7028.37,5836c-632.42-193.73-882.63-502.48-882.63-502.48,0,0-50.06-105.7-78.49-169.96-82.91-191.44-178.61-432.67-257.76-622.36-8.35-20.15-12.75-42.48-12.03-64.09.79-25.8,8.61-51.53,23.69-73.86,537.14-680.14,1241.47-1345.33,1478.65-2209.73,1.59-5.81,2.13-11.89,1.32-17.85-.26-1.9-.65-3.79-1.21-5.64-.3-1.01-.68-2.07-1.15-3.11-1.79-4.01-7.37-4.28-9.5-.44-560.8,1010.97-1434.99,1837.46-2327.16,2562.13-240.52,208.16-474.38,98.52-761.34,212.55-177.02,72.55-261.85,258.37-341.71,423.62-5.67,12.14-20.07,46.24-23.62,58.88-12.02,40.41-3.44,50.15,43.72,61.08,59.04,12.85,463.43,47.13,907.13,39.4,684.28-11.91,915.79-70.02,1104.13-77.5.39-.02.78,0,1.17.09,3.12.69,6.16,3.1,7.43,6.17,1.02,2.46,0,5.44-2.4,6.58-1137.02,537.48-3153.79,382.3-3953.66-1.84-28.17-13.53-29.62-14.47-60.62,14.18-187.82,173.53-643.78,277.11-971.89,312.43-294.72,31.73-524.13-47.86-729.73-42.26-125.02,3.41-213.43,147.93-58.16,447.95,213.23,412.01,1224.45,1592.93,2615.28,1592.93,1947.66,0,2765.8-639.86,4330.09-1344.89,784.24-353.46,766.52,129.69,258.48,512.39-1088,819.61-3764.04,937.48-4068.14,908.17l-108.9,8.63c83.18,84.52,1110.02,131.19,2187.03-13.38,720.43-96.7,1286.63-244.86,1621.82-391.64,506.54-221.82,1125.9-663.35,1125.9-1112.54,0-137.09-271.54-273.38-1055.78-513.62Z"/>
                <polygon points="9705.98 7274.37 9705.98 7274.38 9705.98 7274.38 9705.98 7274.37"/>
              </g>
              <path d="M3722.51,5434.68c-8.59,16.97-30.93,28.24-49.68,25.06-408-69.21-808.58-167.97-1202.06-297.14-116.67-38.3-223.93-77.02-335.83-126.74-19.62-8.71-31.63-32.85-26.64-53.73l435.07-1823.94c5.15-21.59,27.48-37.78,49.6-35.82,68.67,6.08,130.48,21.73,197.49,38.23.98.24,2.56.69,3.51,1,255.65,83.9,497.55,190.88,737.17,313.75,8.7,4.47,23.61,6.25,33.05,3.7,4.29-1.15,7.12-2.62,5.9-4.3-4.13-5.71-9.05-11.72-17.5-20.05l-252.41-248.89-438.51-434-218.14-214.69c-12.33-12.13-17.05-35.16-10.49-51.16l435.61-1063.22c23.13-56.44-4.25-83.99-60.84-61.24l-663,266.7c-103.7,41.72-127.21,8.02-52.24-74.9L3436.36,308.41c83.74-92.61,245.32-80.9,310.52,25.68,120.83,197.49,231.02,389.67,337.13,597.98l801.37,1573.35c7.2,14.14,5.41,36.18-3.97,48.96-175.36,238.8-327.68,479.69-480.6,728.24-193.54,314.61-340.33,642.33-459.87,991.64-.28.81-.69,2.17-.91,2.99-31,115.48-69.09,229.3-97.41,346.41-62.08,256.67-23.18,270.26,88.06,30.77,285.18-614.01,640.9-1178.25,1088.84-1685.32,144.43-163.51,334.96-355.8,532.58-509.36,199.84-155.27,228.86-124.81,64.34,67.48l-135.96,158.92c-236.78,276.77-445.27,569.44-652.08,871.86-409.83,599.27-773.38,1220.35-1105.86,1876.65h-.01Z"/>
      </g>
  </g>
</svg>
