<svg version="1.1" id="Layer_1" xmlns="http://www.w3.org/2000/svg" xmlns:xlink="http://www.w3.org/1999/xlink" x="0px" y="0px"
	 width="100%" viewBox="0 0 1024 1024" enable-background="new 0 0 1024 1024" xml:space="preserve">
<path fill="#000000" opacity="1.000000" stroke="none" 
	d="
M509.545776,675.624512 
	C514.407166,666.642883 519.566711,658.344177 526.306885,651.058594 
	C535.625977,640.985535 547.000183,636.292236 560.695496,635.456726 
	C573.399353,634.681763 586.256958,634.940063 598.764648,631.759705 
	C607.490784,629.540894 615.010193,624.950134 622.259827,619.943909 
	C645.051697,604.205261 665.687805,585.831909 686.187317,567.288452 
	C716.096497,540.233398 744.739319,511.869843 772.962891,483.090729 
	C789.859558,465.861481 806.801147,448.648193 822.583679,430.357758 
	C823.616394,429.160980 824.376831,427.431427 826.797119,427.865173 
	C827.226624,431.997467 825.238953,435.546173 823.656433,439.044373 
	C811.115234,466.766937 794.564087,492.106934 776.962952,516.792969 
	C759.942383,540.664795 741.389526,563.309448 721.571045,584.909302 
	C719.720642,586.926025 719.470642,588.447205 720.581116,591.034790 
	C732.826660,619.570312 745.359131,647.998291 756.762085,676.870850 
	C760.493530,686.318909 766.275085,692.108521 774.826111,696.699036 
	C803.312317,711.991577 832.684082,725.292175 862.732422,737.167664 
	C885.470337,746.153992 908.547607,754.165833 931.991760,761.068604 
	C945.351868,765.002197 958.903625,768.313416 972.622925,770.779602 
	C989.057434,773.734009 996.772766,783.128296 996.990173,798.561279 
	C997.126831,808.265686 991.790649,815.298828 982.940796,819.126770 
	C945.523804,835.310913 907.385681,849.534302 868.401611,861.537048 
	C836.006409,871.511169 803.251099,880.009399 770.118835,887.090759 
	C745.941956,892.258118 721.627991,896.794678 697.125488,900.004395 
	C675.910400,902.783508 654.719238,905.846375 633.346191,907.450073 
	C606.813110,909.440918 580.285278,910.995667 553.669617,911.586426 
	C540.368713,911.881653 527.058167,912.478943 513.760498,912.231018 
	C493.644623,911.856079 473.512604,911.386108 453.435120,910.170044 
	C431.722900,908.854980 409.996643,907.219849 388.400482,904.673096 
	C357.577759,901.038391 326.803223,896.814026 296.288086,891.081238 
	C266.135956,885.416565 236.102814,879.045471 206.460068,871.131592 
	C166.307861,860.412048 126.660591,848.039612 87.939987,832.811279 
	C71.844131,826.480957 56.042156,819.469177 40.052486,812.911865 
	C22.649576,805.775024 22.925135,785.205322 33.014118,773.843689 
	C39.771175,766.234314 48.916759,765.480835 57.819675,763.680237 
	C80.432411,759.106689 102.829216,753.678528 125.010704,747.309753 
	C175.084320,732.932495 223.825516,714.773987 272.276611,695.773865 
	C274.902679,694.744141 277.584320,693.846741 280.170258,692.726501 
	C282.654968,691.650146 284.878387,691.851257 287.333832,693.020020 
	C313.382172,705.418457 340.454742,715.001465 368.415985,722.046570 
	C380.967804,725.209045 393.680542,727.659729 406.353516,730.300110 
	C426.548096,734.507690 447.055267,735.960449 467.421722,738.637939 
	C473.371735,739.420166 479.371521,738.946045 485.365906,739.473633 
	C501.783661,740.918701 518.315918,741.527100 534.743042,740.497864 
	C562.883301,738.734863 591.009583,736.847900 618.894592,731.960022 
	C652.090820,726.141235 684.345093,717.364319 715.574585,704.752808 
	C716.803711,704.256470 717.981934,703.626892 719.154541,703.004028 
	C719.408386,702.869080 719.535217,702.494934 719.961121,701.888245 
	C713.976501,701.311035 708.604065,703.541809 703.205322,704.607483 
	C663.871826,712.371582 624.119995,712.307617 584.372986,710.901611 
	C562.997131,710.145447 541.663147,707.927734 520.456726,704.607056 
	C514.595093,703.689331 508.745331,702.302979 502.750336,701.971924 
	C499.158447,701.773560 497.214844,700.349731 499.498688,696.135193 
	C503.063995,689.556030 506.112854,682.697021 509.545776,675.624512 
z"/>
<path fill="#000000" opacity="1.000000" stroke="none" 
	d="
M615.220398,443.246399 
	C626.067627,430.147827 637.625793,418.161377 649.402832,406.439758 
	C670.792114,385.151184 693.481018,365.362640 719.660339,349.998230 
	C722.514038,348.323425 724.896301,345.796326 728.268921,345.050751 
	C728.685974,344.958557 729.185669,345.240692 730.262817,345.494354 
	C727.710754,350.181305 723.515076,353.021393 720.224121,356.554993 
	C696.858521,381.643433 674.611877,407.675446 653.255615,434.494659 
	C632.712646,460.292542 613.121460,486.787598 594.326904,513.870056 
	C562.431213,559.830933 532.857056,607.258362 505.264984,655.921143 
	C498.051544,668.643066 490.928375,681.417297 483.900299,694.242371 
	C482.564301,696.680420 481.379700,698.322083 478.188141,697.594543 
	C465.909912,694.795532 453.554871,692.326233 441.304169,689.415283 
	C424.368225,685.391052 407.498901,681.107605 390.822021,676.065002 
	C364.408691,668.078430 338.129425,659.708984 312.846588,648.572021 
	C299.040863,642.490723 301.760437,644.801392 304.881073,632.125671 
	C309.673920,612.657654 314.943085,593.301331 320.126038,573.942993 
	C324.581879,557.300293 328.952240,540.615723 333.590149,524.012146 
	C338.496246,506.448517 343.006531,488.774536 347.724091,471.157959 
	C350.982788,458.988983 354.426880,446.867615 357.504456,434.653534 
	C358.301666,431.489532 360.339417,431.312378 362.675140,431.206665 
	C368.462769,430.944733 373.803955,433.157806 379.218781,434.634857 
	C399.850861,440.262848 419.181946,449.224030 438.365509,458.479614 
	C447.657440,462.962708 456.788818,467.778198 466.004242,472.420624 
	C466.828857,472.836029 467.737366,473.084869 469.258942,472.544159 
	C465.093018,468.114502 460.976868,463.636719 456.752716,459.263336 
	C436.739868,438.543396 416.666260,417.882019 396.679993,397.136475 
	C387.904633,388.027740 379.384949,378.671021 370.533722,369.638031 
	C367.981781,367.033691 367.911682,364.943604 369.340515,361.756073 
	C382.594879,332.187592 395.689789,302.547577 408.812195,272.919983 
	C413.460571,262.424866 418.069794,251.912323 422.664032,241.393387 
	C423.379913,239.754242 423.919403,238.038055 425.148163,234.713074 
	C388.931274,248.626328 354.096222,262.008728 319.262177,275.390747 
	C317.938293,272.522552 319.814270,271.679657 320.853882,270.593201 
	C342.026367,248.465790 363.266174,226.402756 384.418365,204.256012 
	C407.291534,180.307327 430.092926,156.290100 452.914642,132.292328 
	C456.469086,128.554703 460.168518,124.929817 463.450409,120.962837 
	C474.047363,108.153999 495.491913,109.832191 504.039612,127.036255 
	C515.060608,149.218430 527.001587,170.941635 538.197205,193.039398 
	C559.914917,235.905762 580.830200,279.163727 600.829407,322.863312 
	C607.815369,338.128174 615.072144,353.269257 622.229370,368.455475 
	C623.466553,371.080475 623.372986,373.139496 621.427795,375.724854 
	C595.501465,410.183533 570.916016,445.572601 549.378845,482.965668 
	C529.292786,517.839172 514.089355,554.862488 502.678101,593.416016 
	C499.438354,604.361755 497.182831,615.601562 494.592651,626.733643 
	C494.231598,628.285522 494.542786,629.993713 494.542786,632.729553 
	C498.633514,629.013916 499.782928,624.642578 501.528717,620.786804 
	C510.318146,601.374329 520.149536,582.513794 530.729919,564.023743 
	C539.991638,547.838135 549.687317,531.926941 560.022461,516.405457 
	C576.917419,491.032410 595.232056,466.729584 615.220398,443.246399 
z"/>
<path fill="#000000" opacity="1.000000" stroke="none" 
	d="
M809.556519,404.471069 
	C838.282104,389.405579 865.305481,372.427399 888.060730,349.600800 
	C907.937195,329.661896 921.415710,305.936005 928.053589,278.323029 
	C931.040527,265.897705 933.829285,253.474045 935.718079,240.843811 
	C935.839844,240.029587 935.874146,239.160507 937.327087,238.821457 
	C938.923035,240.227890 939.065308,242.368423 939.292542,244.415588 
	C940.297424,253.470428 941.604004,262.509613 942.152283,271.593628 
	C943.308655,290.750977 942.416687,309.726593 935.539124,327.987030 
	C928.946045,345.491760 918.088745,360.000763 904.462646,372.581024 
	C881.781921,393.520782 854.941528,407.734161 827.038574,420.157898 
	C817.187805,424.543945 807.316223,429.061310 797.076294,432.337555 
	C789.256653,434.839386 780.893494,436.115295 772.678101,436.787415 
	C762.471497,437.622437 752.222046,439.252106 741.625366,437.306152 
	C764.042969,426.106750 787.351990,416.828308 809.556519,404.471069 
z"/>
<path fill="#000000" opacity="1.000000" stroke="none" 
	d="
M789.743591,257.058716 
	C780.375122,257.048615 771.476379,257.048615 761.955688,257.048615 
	C763.254761,254.219574 765.384888,253.623520 767.234985,252.759857 
	C777.205139,248.105652 787.012451,243.280609 794.435059,234.719818 
	C802.781067,225.093887 807.675049,214.159378 807.802063,201.306015 
	C807.878967,193.523056 807.816223,185.738693 807.816223,177.261047 
	C810.665894,179.025787 811.270996,181.467392 812.236816,183.604492 
	C818.410522,197.265854 825.765808,209.936234 839.747498,217.214523 
	C847.354492,221.174408 855.232788,224.052963 863.984253,223.680145 
	C870.281738,223.411835 876.617126,224.321030 882.889526,222.925674 
	C884.214111,222.630981 885.893127,222.345520 887.409241,224.510178 
	C881.960876,227.294571 876.593079,229.974289 871.282593,232.763092 
	C851.808044,242.990097 840.961731,258.574646 841.280579,281.114258 
	C841.378784,288.052979 841.295898,294.994263 841.295898,302.191833 
	C838.983643,302.265320 838.417480,300.562531 837.634949,298.974152 
	C834.994812,293.615051 832.590515,288.107666 829.537842,282.989929 
	C820.641541,268.075684 807.473083,259.410980 789.743591,257.058716 
z"/>
<path fill="#000000" opacity="1.000000" stroke="none" 
	d="
M716.891724,192.067902 
	C712.509827,189.270081 708.278748,186.820435 703.377625,186.475693 
	C698.613586,186.140610 693.807617,186.402954 688.761658,185.799637 
	C695.553467,180.613846 703.571899,177.445648 708.241821,169.668930 
	C712.979553,161.779129 712.549194,153.251892 713.384399,144.462357 
	C718.529053,151.339828 721.797913,159.411926 729.556030,163.932419 
	C737.272400,168.428574 745.811218,167.443619 754.470642,168.594727 
	C746.947327,173.289322 739.171936,177.305710 734.753052,185.229706 
	C730.319458,193.179962 730.302673,201.768967 731.168518,210.725189 
	C725.699463,204.912415 724.051147,196.619980 716.891724,192.067902 
z"/>
</svg>