<svg xmlns="http://www.w3.org/2000/svg" viewBox="0 0 8192 8192">
  <path d="M8064.1,6135.76c-30.42-365.95-1832.58-778.77-2226.12-1080.8-.85-.66-1.73-1.27-2.64-1.84-28.2-17.88-55.67-40.23-70.52-70.61-76.05-155.51-192.22-451.71-281.63-665.88-16.51-39.54-13.75-83.7,11.46-119.26.53-.75,1.09-1.47,1.67-2.18,260.42-316.67,549.56-638.33,793.31-981.75,183.69-258.81,355.55-533.58,444.24-840.77.22-.76.42-1.52.59-2.29,2.91-12.88,5.2-27.59,5.37-39.81.05-3.44-.29-7.24-1.07-10.39-.76-3.08-3.02-8.77-5.99-9.43-3.14-.69-8.9,2.3-11.38,6.71l-148.15,262.98c-468.35,733.87-1128.84,1340.68-1796.92,1888.01-240.56,197.08-409.68,81.37-654.02,187.08-140.51,60.79-211.1,206.96-275.07,340.3-19.69,41.04-45.38,94.65,9.1,116.73,2.48,1.01,5.14,1.44,7.7,2.22,35.15,10.81,551.3,37.23,679.74,34.5,153.65-3.27,863.91-64.49,1007.1-70.88,8.68-.39,12.01,11.15,4.47,15.45-64.8,36.96-333.48,149.41-335.43,150.25-1011.92,437.26-2045.16,290.82-3027.47-188.19-5.08-2.48-10.65-3.77-16.3-3.85-27.36-.35-54.98,8.28-79.15,21.27-486.84,261.81-1112.22,401.92-1646.84,254.69-.89-.25-1.77-.52-2.64-.83-143.49-50.97-333.76-80.64-346.5,122.71-20.56,328.13,477.89,823.76,724.61,1028.41,730.07,605.6,1725.67,761.85,2638.68,645.42,1251.87-159.65,2345.2-891.55,3542.99-1227.52,525.52-147.4,732.59,266.93,246.92,563.59-1057.01,645.65-2368.06,737.55-3581.75,742.83-4.12.02-8.22.69-12.11,2.03-38.19,13.2,35.57,38.32,54.48,40.59,1156.91,139.34,2358.53-27.91,3442.35-469.91,217.48-88.69,830.99-395.48,905.15-624.75,1.55-4.79,2.19-9.82,1.77-14.84Z" />
  <path d="M3705.81,5056.44c-7.6,14.1-26.65,23.11-42.37,20.03-342.03-67.06-677.18-158.84-1005.69-276.07-97.41-34.76-186.88-69.67-280.03-113.94-16.33-7.76-25.92-28.34-21.27-45.81l405.6-1526.32c4.8-18.07,23.95-31.22,42.53-29.09,57.69,6.6,109.39,21.11,165.46,36.44.82.22,2.14.64,2.93.92,213.44,76.15,414.81,171.43,613.91,280.04,7.23,3.95,19.74,5.77,27.75,3.83,3.64-.88,6.05-2.05,5.06-3.49-3.35-4.9-7.37-10.06-14.3-17.26l-207.16-214.99-359.86-374.86-179.04-185.46c-10.12-10.48-13.6-29.97-7.73-43.3l389.67-885.81c20.69-47.02-1.77-70.81-49.91-52.87l-563.97,210.27c-88.21,32.89-107.28,4.01-42.37-64.19l990.27-1040.36c72.5-76.17,208.29-62.83,260.89,28.31,97.48,168.88,186.12,333.06,270.97,510.74l640.84,1341.96c5.76,12.06,3.78,30.58-4.4,41.14-152.79,197.28-286.23,396.82-420.33,602.8-169.73,260.72-300.38,533.49-408.55,825.02-.25.68-.63,1.81-.83,2.5-28.59,96.56-63.11,191.57-89.48,289.57-57.8,214.77-25.34,227.05,73.48,27.8,253.34-510.83,564.99-978.24,953.06-1395.53,125.13-134.56,289.69-292.36,459.38-417.39,171.6-126.43,195.38-100.16,52.72,58.2l-117.9,130.88c-205.32,227.93-387.17,469.86-567.81,720.03-357.97,495.74-677.44,1010.83-971.51,1556.25Z" />
</svg>
